<svg xmlns="http://www.w3.org/2000/svg" viewBox="0 0 32 32" shape-rendering="crispEdges" xmlns:c2pa="http://c2pa.org/manifest"><metadata><c2pa:manifest>AAAWgmp1bWIAAAAeanVtZGMycGEAEQAQgAAAqgA4m3EDYzJwYQAAABZcanVtYgAAAEdqdW1kYzJtYQARABCAAACqADibcQN1cm46YzJwYToxNTEzYjVjZS0zNzczLTQ0ZTUtOTllMy1hODZhOTQyYTY0NDAAAAADl2p1bWIAAAApanVtZGMyYXMAEQAQgAAAqgA4m3EDYzJwYS5hc3NlcnRpb25zAAAAALxqdW1iAAAARGp1bWRjYm9yABEAEIAAAKoAOJtxE2MycGEuaW5ncmVkaWVudC52MwAAAAAYYzJzaMtxxJTNkke08VZTiNm7bWEAAABwY2JvcqNpZGM6Zm9ybWF0bWltYWdlL3N2Zyt4bWxqaW5zdGFuY2VJRHgseG1wOmlpZDo4MTg3MzI0Yy1kZDBhLTQwZjctOWRjZi0yN2I3MmVlOTRkNDRscmVsYXRpb25zaGlwaHBhcmVudE9mAAAB4mp1bWIAAABBanVtZGNib3IAEQAQgAAAqgA4m3ETYzJwYS5hY3Rpb25zLnYyAAAAABhjMnNoKtcaT1odpOdmawa6YP4bggAAAZljYm9yomdhY3Rpb25zgqJmYWN0aW9ua2MycGEub3BlbmVkanBhcmFtZXRlcnOha2luZ3JlZGllbnRzgaJjdXJseC1zZWxmI2p1bWJmPWMycGEuYXNzZXJ0aW9ucy9jMnBhLmluZ3JlZGllbnQudjNkaGFzaFggsyI5yd4GAblA+hwt0oz8xFpB6S3/DsnYRSr9KN42hCWkZmFjdGlvbngdY29tLmFudGhyb3BpYy5jbGF1ZGUucHJvdmlkZWRqcGFyYW1ldGVyc6F4H2NvbS5hbnRocm9waWMub3JpZ2luLWNvbmZpZGVuY2VndW5rbm93bmtkZXNjcmlwdGlvbnhmQ2xhdWRlIHByb3ZpZGVkIHRoaXMgZmlsZSBhdCB0aGUgcmVxdWVzdCBvZiBhIHVzZXIgYW5kIG1heSBoYXZlIGNyZWF0ZWQgb3IgbW9kaWZpZWQgdGhlIGZpbGUgY29udGVudHMubXNvZnR3YXJlQWdlbnShZG5hbWVmQ2xhdWRlcmFsbEFjdGlvbnNJbmNsdWRlZPUAAADIanVtYgAAAEBqdW1kY2JvcgARABCAAACqADibcRNjMnBhLmhhc2guZGF0YQAAAAAYYzJzaM2rH5k++UTbZ/urbhxfnesAAACAY2JvcqVjYWxnZnNoYTI1NmNwYWRNAAAAAAAAAAAAAAAAAGRoYXNoWCAhfbZQ0aS1t85aU2M92pxKGeBuxE1dnuAo1mEs6dTkfWRuYW1lbmp1bWJmIG1hbmlmZXN0amV4Y2x1c2lvbnOBomVzdGFydBiYZmxlbmd0aBkeBAAAAj5qdW1iAAAAJ2p1bWRjMmNsABEAEIAAAKoAOJtxA2MycGEuY2xhaW0udjIAAAACD2Nib3KlY2FsZ2ZzaGEyNTZpc2lnbmF0dXJleE1zZWxmI2p1bWJmPS9jMnBhL3VybjpjMnBhOjE1MTNiNWNlLTM3NzMtNDRlNS05OWUzLWE4NmE5NDJhNjQ0MC9jMnBhLnNpZ25hdHVyZWppbnN0YW5jZUlEeCx4bXA6aWlkOjRmNWUxZjI3LTUyNDUtNGI3Zi04NGI5LTc2MTA2MDMyOTgyZHJjcmVhdGVkX2Fzc2VydGlvbnODomN1cmx4LXNlbGYjanVtYmY9YzJwYS5hc3NlcnRpb25zL2MycGEuaW5ncmVkaWVudC52M2RoYXNoWCCzIjnJ3gYBuUD6HC3SjPzEWkHpLf8OydhFKv0o3jaEJaJjdXJseCpzZWxmI2p1bWJmPWMycGEuYXNzZXJ0aW9ucy9jMnBhLmFjdGlvbnMudjJkaGFzaFggLRymyQQyA7X9mfAkiz/fMWlSsyrGDlR7dkl6gOs3k4eiY3VybHgpc2VsZiNqdW1iZj1jMnBhLmFzc2VydGlvbnMvYzJwYS5oYXNoLmRhdGFkaGFzaFggwbTDcptsHLBuOJse0Dkefu3sEy4G66X2tF61SvUcXj10Y2xhaW1fZ2VuZXJhdG9yX2luZm+jZG5hbWVvQW50aHJvcGljIEZpbGVzZ3ZlcnNpb25lMS4wLjBrc3BlY1ZlcnNpb25lMi40LjAAABA4anVtYgAAAChqdW1kYzJjcwARABCAAACqADibcQNjMnBhLnNpZ25hdHVyZQAAABAIY2JvctKEWQISogEmGCFZAgowggIGMIIBjaADAgECAhRA5aAK7sI50L64g/oGQgU9Z1UTADAKBggqhkjOPQQDAzBJMRcwFQYDVQQKEw5BbnRocm9waWMsIFBCQzEuMCwGA1UEAxMlQW50aHJvcGljIENvbnRlbnQgQ3JlZGVudGlhbHMgUm9vdCBDQTAeFw0yNjA4MDcxODQzNTZaFw0yODA4MDYxOTQzNTZaMEQxFzAVBgNVBAoTDkFudGhyb3BpYywgUEJDMSkwJwYDVQQDEyBBbnRocm9waWMgQ2xhdWRlIENvbnRlbnQgU2lnbmluZzBZMBMGByqGSM49AgEGCCqGSM49AwEHA0IABJh6CmvLUBgFFNU0vUKlOVtE6djd17L5SuwX0LemFisBM3dkd/3cyjxFA3Qo5S46fX0/ihY0VZ7mfb9KF703t5OjWDBWMA4GA1UdDwEB/wQEAwIHgDAVBgNVHSUEDjAMBgorBgEEAYPoXgIBMAwGA1UdEwEB/wQCMAAwHwYDVR0jBBgwFoAUzlHiBIFOZFsj+OPEz5o+nMHXXMIwCgYIKoZIzj0EAwMDZwAwZAIwMXMdFJ4BetLLVY7ORuE9noqbbAZOZn/aArXyTwFAZfKrPzxF2vPoJNf1+UCdg1XGAjBwX1zd9WGqYkqmL5SFqw1QySjr1zJfpJM9+1rdDwSPLMOPOjKuiXjoU/pUUeG9RwmhY3BhZFkNngAAAAAAAAAAAAAAAAAAAAAAAAAAAAAAAAAAAAAAAAAAAAAAAAAAAAAAAAAAAAAAAAAAAAAAAAAAAAAAAAAAAAAAAAAAAAAAAAAAAAAAAAAAAAAAAAAAAAAAAAAAAAAAAAAAAAAAAAAAAAAAAAAAAAAAAAAAAAAAAAAAAAAAAAAAAAAAAAAAAAAAAAAAAAAAAAAAAAAAAAAAAAAAAAAAAAAAAAAAAAAAAAAAAAAAAAAAAAAAAAAAAAAAAAAAAAAAAAAAAAAAAAAAAAAAAAAAAAAAAAAAAAAAAAAAAAAAAAAAAAAAAAAAAAAAAAAAAAAAAAAAAAAAAAAAAAAAAAAAAAAAAAAAAAAAAAAAAAAAAAAAAAAAAAAAAAAAAAAAAAAAAAAAAAAAAAAAAAAAAAAAAAAAAAAAAAAAAAAAAAAAAAAAAAAAAAAAAAAAAAAAAAAAAAAAAAAAAAAAAAAAAAAAAAAAAAAAAAAAAAAAAAAAAAAAAAAAAAAAAAAAAAAAAAAAAAAAAAAAAAAAAAAAAAAAAAAAAAAAAAAAAAAAAAAAAAAAAAAAAAAAAAAAAAAAAAAAAAAAAAAAAAAAAAAAAAAAAAAAAAAAAAAAAAAAAAAAAAAAAAAAAAAAAAAAAAAAAAAAAAAAAAAAAAAAAAAAAAAAAAAAAAAAAAAAAAAAAAAAAAAAAAAAAAAAAAAAAAAAAAAAAAAAAAAAAAAAAAAAAAAAAAAAAAAAAAAAAAAAAAAAAAAAAAAAAAAAAAAAAAAAAAAAAAAAAAAAAAAAAAAAAAAAAAAAAAAAAAAAAAAAAAAAAAAAAAAAAAAAAAAAAAAAAAAAAAAAAAAAAAAAAAAAAAAAAAAAAAAAAAAAAAAAAAAAAAAAAAAAAAAAAAAAAAAAAAAAAAAAAAAAAAAAAAAAAAAAAAAAAAAAAAAAAAAAAAAAAAAAAAAAAAAAAAAAAAAAAAAAAAAAAAAAAAAAAAAAAAAAAAAAAAAAAAAAAAAAAAAAAAAAAAAAAAAAAAAAAAAAAAAAAAAAAAAAAAAAAAAAAAAAAAAAAAAAAAAAAAAAAAAAAAAAAAAAAAAAAAAAAAAAAAAAAAAAAAAAAAAAAAAAAAAAAAAAAAAAAAAAAAAAAAAAAAAAAAAAAAAAAAAAAAAAAAAAAAAAAAAAAAAAAAAAAAAAAAAAAAAAAAAAAAAAAAAAAAAAAAAAAAAAAAAAAAAAAAAAAAAAAAAAAAAAAAAAAAAAAAAAAAAAAAAAAAAAAAAAAAAAAAAAAAAAAAAAAAAAAAAAAAAAAAAAAAAAAAAAAAAAAAAAAAAAAAAAAAAAAAAAAAAAAAAAAAAAAAAAAAAAAAAAAAAAAAAAAAAAAAAAAAAAAAAAAAAAAAAAAAAAAAAAAAAAAAAAAAAAAAAAAAAAAAAAAAAAAAAAAAAAAAAAAAAAAAAAAAAAAAAAAAAAAAAAAAAAAAAAAAAAAAAAAAAAAAAAAAAAAAAAAAAAAAAAAAAAAAAAAAAAAAAAAAAAAAAAAAAAAAAAAAAAAAAAAAAAAAAAAAAAAAAAAAAAAAAAAAAAAAAAAAAAAAAAAAAAAAAAAAAAAAAAAAAAAAAAAAAAAAAAAAAAAAAAAAAAAAAAAAAAAAAAAAAAAAAAAAAAAAAAAAAAAAAAAAAAAAAAAAAAAAAAAAAAAAAAAAAAAAAAAAAAAAAAAAAAAAAAAAAAAAAAAAAAAAAAAAAAAAAAAAAAAAAAAAAAAAAAAAAAAAAAAAAAAAAAAAAAAAAAAAAAAAAAAAAAAAAAAAAAAAAAAAAAAAAAAAAAAAAAAAAAAAAAAAAAAAAAAAAAAAAAAAAAAAAAAAAAAAAAAAAAAAAAAAAAAAAAAAAAAAAAAAAAAAAAAAAAAAAAAAAAAAAAAAAAAAAAAAAAAAAAAAAAAAAAAAAAAAAAAAAAAAAAAAAAAAAAAAAAAAAAAAAAAAAAAAAAAAAAAAAAAAAAAAAAAAAAAAAAAAAAAAAAAAAAAAAAAAAAAAAAAAAAAAAAAAAAAAAAAAAAAAAAAAAAAAAAAAAAAAAAAAAAAAAAAAAAAAAAAAAAAAAAAAAAAAAAAAAAAAAAAAAAAAAAAAAAAAAAAAAAAAAAAAAAAAAAAAAAAAAAAAAAAAAAAAAAAAAAAAAAAAAAAAAAAAAAAAAAAAAAAAAAAAAAAAAAAAAAAAAAAAAAAAAAAAAAAAAAAAAAAAAAAAAAAAAAAAAAAAAAAAAAAAAAAAAAAAAAAAAAAAAAAAAAAAAAAAAAAAAAAAAAAAAAAAAAAAAAAAAAAAAAAAAAAAAAAAAAAAAAAAAAAAAAAAAAAAAAAAAAAAAAAAAAAAAAAAAAAAAAAAAAAAAAAAAAAAAAAAAAAAAAAAAAAAAAAAAAAAAAAAAAAAAAAAAAAAAAAAAAAAAAAAAAAAAAAAAAAAAAAAAAAAAAAAAAAAAAAAAAAAAAAAAAAAAAAAAAAAAAAAAAAAAAAAAAAAAAAAAAAAAAAAAAAAAAAAAAAAAAAAAAAAAAAAAAAAAAAAAAAAAAAAAAAAAAAAAAAAAAAAAAAAAAAAAAAAAAAAAAAAAAAAAAAAAAAAAAAAAAAAAAAAAAAAAAAAAAAAAAAAAAAAAAAAAAAAAAAAAAAAAAAAAAAAAAAAAAAAAAAAAAAAAAAAAAAAAAAAAAAAAAAAAAAAAAAAAAAAAAAAAAAAAAAAAAAAAAAAAAAAAAAAAAAAAAAAAAAAAAAAAAAAAAAAAAAAAAAAAAAAAAAAAAAAAAAAAAAAAAAAAAAAAAAAAAAAAAAAAAAAAAAAAAAAAAAAAAAAAAAAAAAAAAAAAAAAAAAAAAAAAAAAAAAAAAAAAAAAAAAAAAAAAAAAAAAAAAAAAAAAAAAAAAAAAAAAAAAAAAAAAAAAAAAAAAAAAAAAAAAAAAAAAAAAAAAAAAAAAAAAAAAAAAAAAAAAAAAAAAAAAAAAAAAAAAAAAAAAAAAAAAAAAAAAAAAAAAAAAAAAAAAAAAAAAAAAAAAAAAAAAAAAAAAAAAAAAAAAAAAAAAAAAAAAAAAAAAAAAAAAAAAAAAAAAAAAAAAAAAAAAAAAAAAAAAAAAAAAAAAAAAAAAAAAAAAAAAAAAAAAAAAAAAAAAAAAAAAAAAAAAAAAAAAAAAAAAAAAAAAAAAAAAAAAAAAAAAAAAAAAAAAAAAAAAAAAAAAAAAAAAAAAAAAAAAAAAAAAAAAAAAAAAAAAAAAAAAAAAAAAAAAAAAAAAAAAAAAAAAAAAAAAAAAAAAAAAAAAAAAAAAAAAAAAAAAAAAAAAAAAAAAAAAAAAAAAAAAAAAAAAAAAAAAAAAAAAAAAAAAAAAAAAAAAAAAAAAAAAAAAAAAAAAAAAAAAAAAAAAAAAAAAAAAAAAAAAAAAAAAAAAAAAAAAAAAAAAAAAAAAAAAAAAAAAAAAAAAAAAAAAAAAAAAAAAAAAAAAAAAAAAAAAAAAAAAAAAAAAAAAAAAAAAAAAAAAAAAAAAAAAAAAAAAAAAAAAAAAAAAAAAAAAAAAAAAAAAAAAAAAAAAAAAAAAAAAAAAAAAAAAAAAAAAAAAAAAAAAAAAAAAAAAAAAAAAAAAAAAAAAAAAAAAAAAAAAAAAAAAAAAAAAAAAAAAAAAAAAAAAAAAAAAAAAAAAAAAAAAAAAAAAAAAAAAAAAAAAAAAAAAAAAAAAAAAAAAAAAAAAAAAAAAAAAAAAAAAAAAAAAAAAAAAAAAAAAAAAAAAAAAAAAAAAAAAAAAAAAAAAAAAAAAAAAAAAAAAAAAAAAAAAAAAAAAAAAAAAAAAAAAAAAAAAAAAAAAAAAAAAAAAAAAAAAAAAAAAAAAAAAAAAAAAAAAAAAAAAAAAAAAAAAAAAAAAAAAAAAAAAAAAAAAAAAAAAAAAAAAAAAAAAAAAAAAAAAAAAAAAAAAAAAAAAAAAAAAAAAAAAAAAAAAAAAAAAAAAAAAAAAAAAAAAAAAAAAAAAAAAAAAAAAAAAAAAAAAAAAAAAAAAAAAAAAAAAAAAAAAAAAAAAAAAAAAAAAAAAAAAAAAAAAAAAAAAAAAAAAAAAAAAAAAAAAAAAAAAAAAAAAAAAAAAAAAAAAAAAAAAAAAAAAAAAAAAAAAAAAAAAAAAAAAAAAAAAAAAAAAAAAAAAAAAAAAAAAAAAAAAAAAAAAAAAAAAAAAAAAAAAAAAAAAAAAAAAAAAAAAAAAAAAAAAAAAAAAAAAAAAAAAAAAAAAAAAAAAAAAAAAAAAAAAAAAAAAAAAAAAAAAAAAAAAAAAAAAAAAAAAAAAAAAAAAAAAAAAAAAAAAAAAAAAAAAAAAAAAAAAAAAAAAAAAAAAAAAAAAAAAAAAAAAAAAAAAAAAAAAAAAAAAAAAAAAAAAAAAAAAAAAAAAAAAAAAAAAAAAAAAAAAAAAAAAAAAAAAAAAAAAAAAAAAAAAAAAAAAAAAAAAAAAAAAAAAAAAAAAAAAAAAAAAAAAAAAAAAAAAAAAAAAAAAAAAAAAAAAAAAAAAAAAAAAAAAAAAAAAAAAAAAAAAAAAAAAAAAAAAAAAAAAAAAAAAAAAAAAAAAAAAAAAAAAAAAAAAAAAAAAAAAAAAAAAAAAAAAAAAAAAAAAAAAAAAAAAAAAAAAAAAAAAAAAAAAAAAAAAAAAAAAAAAAAAAAAAAAAAAAAAAAAAPZYQPpa5LrW7PEZT4AhNqZrGgut5NzPboG2EkoWA9wUlmN5x5nsPoaS9wp5zkaGEMaa5pB8u7zfZu3uOQFlAVh5SCg=</c2pa:manifest></metadata>
<rect x="12" y="1" width="8" height="1" fill="#7a4400"/>
<rect x="9" y="2" width="14" height="1" fill="#7a4400"/>
<rect x="8" y="3" width="3" height="1" fill="#7a4400"/>
<rect x="11" y="3" width="10" height="1" fill="#ffb03c"/>
<rect x="21" y="3" width="3" height="1" fill="#7a4400"/>
<rect x="6" y="4" width="3" height="1" fill="#7a4400"/>
<rect x="9" y="4" width="14" height="1" fill="#ffb03c"/>
<rect x="23" y="4" width="3" height="1" fill="#7a4400"/>
<rect x="5" y="5" width="3" height="1" fill="#7a4400"/>
<rect x="8" y="5" width="5" height="1" fill="#ffb03c"/>
<rect x="13" y="5" width="6" height="1" fill="#f7931a"/>
<rect x="19" y="5" width="5" height="1" fill="#ffb03c"/>
<rect x="24" y="5" width="3" height="1" fill="#7a4400"/>
<rect x="4" y="6" width="3" height="1" fill="#7a4400"/>
<rect x="7" y="6" width="3" height="1" fill="#ffb03c"/>
<rect x="10" y="6" width="12" height="1" fill="#f7931a"/>
<rect x="22" y="6" width="3" height="1" fill="#ffb03c"/>
<rect x="25" y="6" width="3" height="1" fill="#7a4400"/>
<rect x="4" y="7" width="2" height="1" fill="#7a4400"/>
<rect x="6" y="7" width="3" height="1" fill="#ffb03c"/>
<rect x="9" y="7" width="14" height="1" fill="#f7931a"/>
<rect x="23" y="7" width="3" height="1" fill="#ffb03c"/>
<rect x="26" y="7" width="2" height="1" fill="#7a4400"/>
<rect x="3" y="8" width="2" height="1" fill="#7a4400"/>
<rect x="5" y="8" width="3" height="1" fill="#ffb03c"/>
<rect x="8" y="8" width="16" height="1" fill="#f7931a"/>
<rect x="24" y="8" width="3" height="1" fill="#ffb03c"/>
<rect x="27" y="8" width="2" height="1" fill="#7a4400"/>
<rect x="2" y="9" width="2" height="1" fill="#7a4400"/>
<rect x="4" y="9" width="3" height="1" fill="#ffb03c"/>
<rect x="7" y="9" width="18" height="1" fill="#f7931a"/>
<rect x="25" y="9" width="3" height="1" fill="#ffb03c"/>
<rect x="28" y="9" width="2" height="1" fill="#7a4400"/>
<rect x="2" y="10" width="2" height="1" fill="#7a4400"/>
<rect x="4" y="10" width="2" height="1" fill="#ffb03c"/>
<rect x="6" y="10" width="20" height="1" fill="#f7931a"/>
<rect x="26" y="10" width="2" height="1" fill="#ffb03c"/>
<rect x="28" y="10" width="2" height="1" fill="#7a4400"/>
<rect x="2" y="11" width="1" height="1" fill="#7a4400"/>
<rect x="3" y="11" width="3" height="1" fill="#ffb03c"/>
<rect x="6" y="11" width="20" height="1" fill="#f7931a"/>
<rect x="26" y="11" width="3" height="1" fill="#ffb03c"/>
<rect x="29" y="11" width="1" height="1" fill="#7a4400"/>
<rect x="1" y="12" width="2" height="1" fill="#7a4400"/>
<rect x="3" y="12" width="3" height="1" fill="#ffb03c"/>
<rect x="6" y="12" width="20" height="1" fill="#f7931a"/>
<rect x="26" y="12" width="3" height="1" fill="#ffb03c"/>
<rect x="29" y="12" width="2" height="1" fill="#7a4400"/>
<rect x="1" y="13" width="2" height="1" fill="#7a4400"/>
<rect x="3" y="13" width="2" height="1" fill="#ffb03c"/>
<rect x="5" y="13" width="22" height="1" fill="#f7931a"/>
<rect x="27" y="13" width="2" height="1" fill="#ffb03c"/>
<rect x="29" y="13" width="2" height="1" fill="#7a4400"/>
<rect x="1" y="14" width="2" height="1" fill="#7a4400"/>
<rect x="3" y="14" width="2" height="1" fill="#ffb03c"/>
<rect x="5" y="14" width="22" height="1" fill="#f7931a"/>
<rect x="27" y="14" width="2" height="1" fill="#ffb03c"/>
<rect x="29" y="14" width="2" height="1" fill="#7a4400"/>
<rect x="1" y="15" width="2" height="1" fill="#7a4400"/>
<rect x="3" y="15" width="2" height="1" fill="#ffb03c"/>
<rect x="5" y="15" width="22" height="1" fill="#f7931a"/>
<rect x="27" y="15" width="2" height="1" fill="#ffb03c"/>
<rect x="29" y="15" width="2" height="1" fill="#7a4400"/>
<rect x="1" y="16" width="2" height="1" fill="#7a4400"/>
<rect x="3" y="16" width="2" height="1" fill="#ffb03c"/>
<rect x="5" y="16" width="22" height="1" fill="#f7931a"/>
<rect x="27" y="16" width="2" height="1" fill="#ffb03c"/>
<rect x="29" y="16" width="2" height="1" fill="#7a4400"/>
<rect x="1" y="17" width="2" height="1" fill="#7a4400"/>
<rect x="3" y="17" width="2" height="1" fill="#ffb03c"/>
<rect x="5" y="17" width="22" height="1" fill="#f7931a"/>
<rect x="27" y="17" width="2" height="1" fill="#ffb03c"/>
<rect x="29" y="17" width="2" height="1" fill="#7a4400"/>
<rect x="1" y="18" width="2" height="1" fill="#7a4400"/>
<rect x="3" y="18" width="2" height="1" fill="#ffb03c"/>
<rect x="5" y="18" width="22" height="1" fill="#f7931a"/>
<rect x="27" y="18" width="2" height="1" fill="#ffb03c"/>
<rect x="29" y="18" width="2" height="1" fill="#7a4400"/>
<rect x="1" y="19" width="2" height="1" fill="#7a4400"/>
<rect x="3" y="19" width="3" height="1" fill="#ffb03c"/>
<rect x="6" y="19" width="20" height="1" fill="#f7931a"/>
<rect x="26" y="19" width="3" height="1" fill="#ffb03c"/>
<rect x="29" y="19" width="2" height="1" fill="#7a4400"/>
<rect x="2" y="20" width="1" height="1" fill="#7a4400"/>
<rect x="3" y="20" width="3" height="1" fill="#ffb03c"/>
<rect x="6" y="20" width="20" height="1" fill="#f7931a"/>
<rect x="26" y="20" width="3" height="1" fill="#ffb03c"/>
<rect x="29" y="20" width="1" height="1" fill="#7a4400"/>
<rect x="2" y="21" width="2" height="1" fill="#7a4400"/>
<rect x="4" y="21" width="2" height="1" fill="#ffb03c"/>
<rect x="6" y="21" width="20" height="1" fill="#f7931a"/>
<rect x="26" y="21" width="2" height="1" fill="#ffb03c"/>
<rect x="28" y="21" width="2" height="1" fill="#7a4400"/>
<rect x="2" y="22" width="2" height="1" fill="#7a4400"/>
<rect x="4" y="22" width="3" height="1" fill="#ffb03c"/>
<rect x="7" y="22" width="18" height="1" fill="#f7931a"/>
<rect x="25" y="22" width="3" height="1" fill="#ffb03c"/>
<rect x="28" y="22" width="2" height="1" fill="#7a4400"/>
<rect x="3" y="23" width="2" height="1" fill="#7a4400"/>
<rect x="5" y="23" width="3" height="1" fill="#ffb03c"/>
<rect x="8" y="23" width="16" height="1" fill="#f7931a"/>
<rect x="24" y="23" width="3" height="1" fill="#ffb03c"/>
<rect x="27" y="23" width="2" height="1" fill="#7a4400"/>
<rect x="4" y="24" width="2" height="1" fill="#7a4400"/>
<rect x="6" y="24" width="3" height="1" fill="#ffb03c"/>
<rect x="9" y="24" width="14" height="1" fill="#f7931a"/>
<rect x="23" y="24" width="3" height="1" fill="#ffb03c"/>
<rect x="26" y="24" width="2" height="1" fill="#7a4400"/>
<rect x="4" y="25" width="3" height="1" fill="#7a4400"/>
<rect x="7" y="25" width="3" height="1" fill="#ffb03c"/>
<rect x="10" y="25" width="12" height="1" fill="#f7931a"/>
<rect x="22" y="25" width="3" height="1" fill="#ffb03c"/>
<rect x="25" y="25" width="3" height="1" fill="#7a4400"/>
<rect x="5" y="26" width="3" height="1" fill="#7a4400"/>
<rect x="8" y="26" width="5" height="1" fill="#ffb03c"/>
<rect x="13" y="26" width="6" height="1" fill="#f7931a"/>
<rect x="19" y="26" width="5" height="1" fill="#ffb03c"/>
<rect x="24" y="26" width="3" height="1" fill="#7a4400"/>
<rect x="6" y="27" width="3" height="1" fill="#7a4400"/>
<rect x="9" y="27" width="14" height="1" fill="#ffb03c"/>
<rect x="23" y="27" width="3" height="1" fill="#7a4400"/>
<rect x="8" y="28" width="3" height="1" fill="#7a4400"/>
<rect x="11" y="28" width="10" height="1" fill="#ffb03c"/>
<rect x="21" y="28" width="3" height="1" fill="#7a4400"/>
<rect x="9" y="29" width="14" height="1" fill="#7a4400"/>
<rect x="12" y="30" width="8" height="1" fill="#7a4400"/>
</svg>